<svg xmlns="http://www.w3.org/2000/svg" viewBox="0 0 1024 1024" role="img" aria-label="TV control app icon">
  <defs>
    <linearGradient id="screen" x1="160" y1="184" x2="864" y2="760" gradientUnits="userSpaceOnUse">
      <stop offset="0" stop-color="#1F8A70"/>
      <stop offset="0.56" stop-color="#2D5BFF"/>
      <stop offset="1" stop-color="#1B1E3C"/>
    </linearGradient>
    <linearGradient id="remote" x1="610" y1="410" x2="802" y2="800" gradientUnits="userSpaceOnUse">
      <stop offset="0" stop-color="#F6F8FF"/>
      <stop offset="1" stop-color="#C9D2E8"/>
    </linearGradient>
    <filter id="shadow" x="-20%" y="-20%" width="140%" height="140%">
      <feDropShadow dx="0" dy="28" stdDeviation="30" flood-color="#07111F" flood-opacity="0.28"/>
    </filter>
  </defs>
  <rect width="1024" height="1024" rx="226" fill="#F4F0E8"/>
  <g filter="url(#shadow)">
    <rect x="142" y="178" width="740" height="514" rx="96" fill="#172033"/>
    <rect x="184" y="220" width="656" height="430" rx="62" fill="url(#screen)"/>
    <path d="M390 744h244l26 92H364l26-92Z" fill="#172033"/>
    <rect x="304" y="824" width="416" height="52" rx="26" fill="#172033"/>
  </g>
  <path d="M274 366c104-88 269-88 373 0" fill="none" stroke="#FFFFFF" stroke-width="48" stroke-linecap="round" opacity="0.88"/>
  <path d="M354 452c60-48 153-48 213 0" fill="none" stroke="#FFFFFF" stroke-width="44" stroke-linecap="round" opacity="0.88"/>
  <circle cx="461" cy="538" r="38" fill="#FFFFFF" opacity="0.92"/>
  <g filter="url(#shadow)">
    <rect x="626" y="398" width="178" height="394" rx="72" transform="rotate(-12 715 595)" fill="url(#remote)"/>
    <circle cx="684" cy="486" r="34" fill="#FF5A52"/>
    <circle cx="718" cy="594" r="42" fill="#172033"/>
    <circle cx="718" cy="594" r="16" fill="#F6F8FF"/>
    <rect x="672" y="675" width="88" height="28" rx="14" transform="rotate(-12 716 689)" fill="#62708C"/>
    <rect x="682" y="727" width="88" height="28" rx="14" transform="rotate(-12 726 741)" fill="#62708C"/>
  </g>
</svg>
